<?xml version="1.0" encoding="UTF-8"?>
<svg xmlns="http://www.w3.org/2000/svg" xmlns:xlink="http://www.w3.org/1999/xlink" width="310px" height="310px" viewBox="0 0 310 310" version="1.1">
<defs>
<clipPath id="clip1">
  <path d="M 51.699219 50 L 258.304688 50 L 258.304688 260 L 51.699219 260 Z M 51.699219 50 "/>
</clipPath>
<clipPath id="clip2">
  <path d="M 82.6875 166.710938 L 227.3125 166.710938 L 227.3125 211.074219 L 82.6875 211.074219 Z M 82.6875 166.710938 "/>
</clipPath>
<clipPath id="clip3">
  <path d="M 130 98.929688 L 183.738281 98.929688 L 183.738281 160.238281 L 130 160.238281 Z M 130 98.929688 "/>
</clipPath>
<clipPath id="clip4">
  <path d="M 126.261719 98.929688 L 129 98.929688 L 129 101 L 126.261719 101 Z M 126.261719 98.929688 "/>
</clipPath>
<clipPath id="clip5">
  <path d="M 126.261719 106 L 168 106 L 168 139 L 126.261719 139 Z M 126.261719 106 "/>
</clipPath>
</defs>
<g id="surface1">
<rect x="0" y="0" width="310" height="310" style="fill:rgb(1.568627%,1.568627%,1.568627%);fill-opacity:1;stroke:none;"/>
<g clip-path="url(#clip1)" clip-rule="nonzero">
<path style=" stroke:none;fill-rule:nonzero;fill:rgb(15.686275%,87.843137%,90.588235%);fill-opacity:1;" d="M 193.46875 65.261719 C 193.925781 65.261719 197.578125 67.085938 199.632812 67.773438 C 198.945312 68 197.347656 67.316406 195.523438 66.628906 C 195.980469 66.628906 196.890625 66.859375 197.804688 67.316406 C 197.347656 66.859375 193.925781 65.71875 193.46875 65.261719 M 159.453125 58.183594 C 160.136719 57.957031 168.125 59.097656 171.78125 59.324219 C 172.007812 59.097656 171.324219 59.097656 170.410156 58.867188 C 171.550781 58.640625 173.835938 59.324219 175.433594 59.554688 C 170.636719 59.78125 165.386719 58.414062 160.820312 58.867188 C 159.222656 58.867188 160.363281 58.414062 159.453125 58.183594 M 152.832031 58.183594 C 156.941406 58.183594 160.136719 58.183594 154.199219 58.640625 C 153.515625 58.414062 152.601562 58.414062 152.832031 58.183594 M 217.4375 77.132812 C 217.894531 77.132812 219.722656 79.1875 220.632812 79.871094 C 220.40625 80.101562 218.578125 78.273438 217.667969 77.589844 C 217.894531 77.816406 217.667969 77.589844 217.4375 77.132812 M 212.871094 74.164062 C 211.046875 72.566406 210.359375 72.566406 210.132812 71.652344 C 211.730469 72.566406 212.871094 73.480469 212.871094 74.164062 M 183.421875 59.78125 C 183.652344 59.554688 184.105469 60.011719 185.25 60.238281 C 183.878906 60.011719 184.105469 60.238281 184.5625 60.695312 C 182.964844 60.46875 182.507812 60.238281 182.964844 59.78125 C 183.878906 60.238281 184.105469 60.011719 183.421875 59.78125 M 118.585938 62.523438 C 118.585938 62.292969 119.5 61.835938 120.183594 61.609375 C 119.5 62.066406 119.730469 62.292969 120.871094 61.835938 C 120.871094 62.066406 119.5 62.523438 118.585938 62.976562 C 119.042969 62.75 119.5 62.066406 118.585938 62.523438 M 187.988281 57.5 C 187.304688 57.726562 184.792969 56.359375 182.28125 55.902344 C 180.910156 55.445312 187.761719 57.042969 187.988281 57.5 M 53.296875 170.277344 C 54.664062 175.984375 53.75 175.753906 53.296875 170.277344 M 53.523438 136.03125 C 53.75 135.117188 53.980469 132.609375 54.207031 132.835938 C 53.523438 138.316406 52.382812 140.824219 52.152344 144.933594 C 52.839844 141.28125 51.925781 146.988281 51.699219 148.359375 C 51.925781 150.1875 51.925781 147.21875 52.382812 147.675781 C 52.839844 148.359375 51.46875 157.949219 51.925781 152.699219 C 51.46875 157.492188 51.925781 162.742188 52.839844 164.113281 C 51.699219 171.417969 57.40625 187.855469 58.546875 191.277344 C 58.773438 191.507812 58.546875 190.136719 59.003906 191.050781 C 59.460938 194.019531 61.515625 196.074219 62.199219 199.269531 C 62.882812 200.183594 65.625 205.203125 66.078125 206.347656 C 66.992188 208.171875 67.449219 207.945312 68.363281 209.769531 C 71.101562 215.019531 75.441406 220.042969 79.550781 224.839844 C 92.789062 240.363281 113.109375 253.144531 135.710938 257.710938 C 158.308594 262.507812 182.050781 259.082031 200.542969 250.179688 C 201.6875 249.492188 201.457031 249.265625 202.828125 248.808594 C 209.21875 246.753906 216.980469 240.132812 221.320312 237.621094 C 223.375 235.339844 228.851562 231.457031 229.539062 229.175781 C 233.417969 225.980469 237.300781 220.730469 239.355469 217.304688 C 240.496094 215.476562 241.410156 215.476562 241.867188 214.335938 C 241.636719 214.335938 245.519531 209.542969 246.660156 206.804688 C 246.203125 206.804688 245.519531 208.171875 245.519531 206.804688 C 253.738281 191.050781 258.300781 169.820312 255.792969 155.207031 C 256.246094 173.242188 251.683594 193.332031 243.007812 206.117188 C 239.125 214.335938 231.136719 223.238281 223.832031 229.632812 C 222.6875 230.773438 221.546875 232.144531 220.175781 233.054688 C 215.839844 236.710938 211.046875 239.675781 206.023438 242.417969 C 194.152344 249.035156 180.910156 254.746094 165.386719 254.972656 C 192.097656 252.691406 216.070312 239.21875 229.308594 222.785156 C 219.265625 232.601562 214.925781 236.480469 203.742188 242.1875 C 202.828125 243.785156 195.292969 246.980469 190.269531 248.351562 C 193.238281 246.980469 199.402344 244.699219 201.457031 242.875 C 184.792969 250.863281 166.300781 255.429688 148.949219 252.917969 C 155.570312 252.917969 164.929688 253.144531 173.835938 251.546875 C 175.203125 251.089844 175.890625 250.636719 177.488281 250.40625 C 194.835938 246.527344 211.503906 238.078125 223.375 226.207031 C 216.523438 232.371094 206.25 239.675781 199.632812 241.960938 C 205.796875 238.535156 216.980469 231.914062 220.632812 226.894531 C 213.328125 234.199219 199.632812 241.503906 190.957031 244.699219 C 189.585938 244.929688 191.871094 243.785156 189.585938 244.699219 C 186.847656 245.382812 187.988281 245.382812 187.304688 245.839844 C 176.800781 248.808594 164.703125 251.320312 154.65625 250.40625 C 152.832031 250.179688 152.144531 249.722656 150.546875 249.722656 C 148.722656 249.492188 147.125 249.492188 145.070312 249.492188 C 137.078125 248.582031 128.402344 245.382812 122.011719 242.644531 C 118.585938 241.046875 115.164062 239.90625 111.738281 237.851562 C 109 236.253906 106.714844 234.425781 104.433594 232.601562 C 95.757812 226.207031 88.453125 219.816406 81.605469 210.683594 C 69.277344 193.5625 62.882812 172.101562 63.796875 150.871094 C 64.710938 129.640625 73.15625 108.863281 86.625 93.570312 C 85.941406 94.253906 87.539062 91.972656 88.910156 90.601562 C 88.910156 91.058594 88.679688 91.742188 90.277344 90.144531 C 91.648438 88.546875 89.820312 89.6875 90.507812 88.773438 C 104.660156 73.25 129.316406 60.695312 154.65625 60.238281 C 155.570312 59.554688 157.167969 58.640625 158.996094 59.097656 C 158.996094 59.324219 157.855469 59.324219 157.855469 59.324219 C 160.363281 59.097656 162.648438 59.097656 163.789062 59.554688 C 164.015625 59.324219 162.875 59.097656 163.789062 59.097656 C 165.386719 59.554688 165.84375 59.097656 166.757812 59.554688 C 166.070312 59.554688 165.386719 59.554688 164.929688 59.78125 C 170.636719 59.78125 174.289062 61.152344 180 61.609375 C 177.03125 60.921875 176.34375 60.921875 174.0625 60.238281 C 176.574219 60.695312 177.714844 61.152344 178.855469 60.921875 C 178.398438 60.921875 178.628906 60.238281 179.085938 60.46875 C 183.652344 61.609375 184.105469 62.066406 188.902344 63.664062 C 189.359375 63.207031 186.847656 62.976562 186.160156 62.292969 C 190.726562 63.890625 194.835938 65.03125 197.578125 66.859375 C 196.664062 66.175781 193.925781 65.261719 191.871094 64.347656 C 191.640625 64.574219 192.554688 64.804688 192.78125 65.261719 C 190.5 64.121094 187.304688 62.976562 184.105469 62.523438 C 186.847656 63.207031 188.671875 64.121094 189.816406 64.574219 C 187.304688 64.121094 184.105469 62.523438 180.453125 61.835938 C 186.390625 63.664062 197.578125 67.773438 204.425781 71.425781 C 201.914062 69.828125 198.945312 68.683594 197.347656 67.773438 C 198.71875 68 200.316406 68.914062 200.316406 68.457031 C 201.914062 69.140625 203.96875 70.738281 205.109375 70.96875 C 203.054688 69.597656 198.945312 67.542969 197.578125 66.859375 C 214.699219 74.621094 229.996094 87.632812 239.8125 104.300781 C 240.722656 105.898438 242.09375 109.550781 243.234375 110.007812 C 243.007812 108.863281 242.09375 108.179688 241.179688 106.355469 C 241.636719 106.355469 241.636719 105.667969 241.179688 104.984375 C 240.265625 103.84375 241.179688 105.898438 240.265625 104.753906 C 236.15625 97.222656 231.136719 90.601562 223.375 83.296875 C 227.710938 87.40625 224.515625 84.4375 223.601562 83.066406 C 229.539062 88.320312 236.386719 97.222656 239.355469 101.789062 C 238.898438 101.101562 238.667969 100.644531 238.898438 100.644531 C 244.375 110.007812 247.800781 118.453125 251.226562 130.554688 C 251.453125 130.78125 251.226562 129.640625 251.683594 130.324219 C 253.964844 139.914062 254.648438 147.902344 254.421875 155.207031 C 256.246094 142.878906 252.140625 123.703125 244.832031 108.636719 C 243.921875 106.808594 243.921875 108.179688 243.007812 106.125 C 243.007812 105.441406 242.320312 104.070312 241.867188 103.15625 C 232.734375 88.089844 221.546875 77.359375 208.304688 68.914062 C 209.21875 69.371094 211.046875 70.738281 211.046875 70.511719 C 186.390625 54.304688 157.855469 52.019531 134.339844 57.042969 C 132.742188 57.726562 132.054688 58.414062 130.230469 59.324219 C 133.65625 58.183594 135.710938 57.957031 138.90625 57.269531 C 139.589844 56.585938 135.9375 57.5 137.535156 56.8125 C 137.765625 57.042969 140.730469 56.359375 141.417969 56.585938 C 141.417969 56.8125 140.503906 57.042969 140.273438 57.269531 C 147.808594 55.671875 155.570312 55.445312 162.191406 55.902344 C 158.308594 56.128906 151.234375 55.445312 148.949219 56.585938 C 151.234375 56.359375 154.429688 56.128906 156.484375 56.359375 C 153.746094 56.359375 148.722656 56.585938 146.4375 56.8125 C 146.210938 56.585938 150.089844 56.128906 147.582031 56.128906 C 146.4375 56.359375 144.613281 56.359375 143.925781 57.042969 C 124.292969 58.867188 105.117188 69.140625 91.648438 81.242188 C 88.910156 83.523438 85.714844 86.035156 83.660156 88.546875 C 78.636719 94.253906 75.441406 99.960938 71.785156 104.984375 C 74.070312 100.191406 79.09375 92.882812 85.027344 86.71875 C 90.964844 80.558594 97.355469 75.304688 100.78125 72.566406 C 100.78125 73.480469 106.257812 69.140625 108.3125 67.773438 C 106.945312 68.914062 109.226562 67.316406 109.683594 67.542969 C 116.988281 63.207031 122.925781 61.609375 129.546875 59.097656 C 127.945312 59.554688 126.578125 60.011719 126.347656 59.78125 C 127.945312 59.324219 128.859375 58.867188 128.632812 58.640625 C 122.238281 60.46875 112.195312 64.804688 104.203125 69.597656 C 118.585938 59.78125 136.851562 53.847656 154.886719 53.617188 C 172.921875 53.160156 190.5 57.726562 204.425781 65.03125 C 213.785156 69.140625 222.6875 76.675781 229.765625 83.980469 C 231.820312 85.808594 230.222656 83.523438 233.191406 86.71875 C 232.277344 86.265625 231.59375 85.808594 232.734375 87.175781 C 234.558594 89.230469 232.277344 85.578125 235.246094 89.230469 C 235.015625 89.230469 234.105469 88.089844 234.105469 88.546875 C 242.09375 95.625 248.257812 108.410156 251.910156 116.855469 C 250.996094 113.429688 248.714844 108.636719 246.886719 105.210938 C 252.367188 115.257812 254.191406 121.191406 256.476562 130.097656 C 257.390625 130.78125 256.019531 126.898438 256.933594 128.726562 C 257.160156 130.097656 257.390625 134.433594 258.300781 135.117188 C 257.617188 130.78125 256.476562 125.53125 255.5625 124.617188 C 256.246094 125.074219 254.421875 119.367188 253.28125 117.996094 C 252.824219 114.34375 249.628906 107.953125 246.886719 103.15625 C 237.070312 83.980469 219.492188 68.230469 199.859375 59.554688 C 199.859375 59.097656 198.71875 58.640625 198.261719 58.183594 C 178.855469 49.964844 155.570312 47.683594 133.199219 52.933594 C 110.597656 58.414062 89.367188 71.425781 74.296875 90.144531 C 74.984375 87.863281 80.691406 83.523438 80.917969 81.699219 C 74.296875 88.773438 67.222656 98.136719 62.425781 108.179688 C 57.40625 118.226562 54.664062 128.5 53.523438 136.03125 "/>
</g>
<g clip-path="url(#clip2)" clip-rule="nonzero">
<path style=" stroke:none;fill-rule:nonzero;fill:rgb(15.686275%,87.843137%,90.588235%);fill-opacity:1;" d="M 107.011719 202.121094 L 119.46875 169.15625 L 130.828125 169.15625 L 130.828125 170.320312 L 125.894531 172.367188 L 125.894531 207.859375 L 131.121094 209.90625 L 131.121094 211.070312 L 116.847656 211.070312 L 116.847656 209.90625 L 121.398438 207.859375 L 121.398438 175.265625 L 121.0625 175.265625 L 107.675781 211.070312 L 104.800781 211.070312 L 92.007812 175.148438 L 91.726562 175.148438 L 91.726562 207.578125 L 96.359375 209.90625 L 96.359375 211.070312 L 82.972656 211.070312 L 82.972656 209.90625 L 87.921875 207.578125 L 87.921875 172.367188 L 82.695312 170.320312 L 82.695312 169.15625 L 96.246094 169.15625 L 96.359375 171.855469 L 106.789062 202.121094 Z M 146.542969 207.859375 L 151.769531 209.90625 L 151.769531 211.070312 L 136.054688 211.070312 L 136.054688 209.90625 L 141.292969 207.859375 L 141.292969 186.523438 L 136.054688 184.472656 L 136.054688 183.308594 L 145.949219 181.261719 L 146.542969 181.855469 Z M 139.382812 172.703125 C 139.382812 171.71875 139.730469 170.882812 140.421875 170.191406 C 141.109375 169.5 141.96875 169.15625 142.992188 169.15625 C 143.976562 169.15625 144.816406 169.5 145.507812 170.191406 C 146.199219 170.882812 146.542969 171.71875 146.542969 172.703125 C 146.542969 173.730469 146.199219 174.585938 145.507812 175.277344 C 144.816406 175.96875 143.976562 176.3125 142.992188 176.3125 C 141.96875 176.3125 141.109375 175.96875 140.421875 175.277344 C 139.730469 174.585938 139.382812 173.730469 139.382812 172.703125 Z M 166.007812 207.859375 L 170.953125 209.90625 L 170.953125 211.070312 L 155.554688 211.070312 L 155.554688 209.90625 L 160.78125 207.859375 L 160.78125 186.523438 L 155.554688 184.472656 L 155.554688 183.308594 L 165.4375 181.261719 L 166.007812 181.855469 L 166.007812 185.300781 C 167.355469 184.050781 168.933594 183.066406 170.730469 182.34375 C 172.53125 181.621094 174.300781 181.261719 176.039062 181.261719 C 178.578125 181.261719 180.683594 182.035156 182.359375 183.589844 C 184.039062 185.140625 184.875 187.453125 184.875 190.527344 L 184.875 207.859375 L 190.113281 209.90625 L 190.113281 211.070312 L 174.679688 211.070312 L 174.679688 209.90625 L 179.648438 207.859375 L 179.648438 192.261719 C 179.648438 189.527344 179.160156 187.636719 178.183594 186.582031 C 177.210938 185.515625 175.542969 184.984375 173.175781 184.984375 C 170.351562 184.984375 167.960938 185.828125 166.007812 187.511719 Z M 203.210938 207.859375 L 208.15625 209.90625 L 208.15625 211.070312 L 192.722656 211.070312 L 192.722656 209.90625 L 197.984375 207.859375 L 197.984375 171.972656 L 192.722656 169.921875 L 192.722656 168.757812 L 202.640625 166.710938 L 203.210938 167.304688 L 203.210938 185.300781 C 204.535156 184.050781 206.101562 183.066406 207.898438 182.34375 C 209.699219 181.621094 211.46875 181.261719 213.207031 181.261719 C 215.769531 181.261719 217.886719 182.035156 219.5625 183.589844 C 221.238281 185.140625 222.078125 187.453125 222.078125 190.527344 L 222.078125 207.859375 L 227.304688 209.90625 L 227.304688 211.070312 L 211.871094 211.070312 L 211.871094 209.90625 L 216.816406 207.859375 L 216.816406 192.261719 C 216.816406 189.527344 216.335938 187.636719 215.375 186.582031 C 214.402344 185.515625 212.734375 184.984375 210.367188 184.984375 C 207.542969 184.984375 205.15625 185.828125 203.210938 187.511719 Z M 203.210938 207.859375 "/>
</g>
<g clip-path="url(#clip3)" clip-rule="nonzero">
<path style=" stroke:none;fill-rule:nonzero;fill:rgb(15.686275%,87.843137%,90.588235%);fill-opacity:1;" d="M 177.894531 116.746094 C 177.894531 116.648438 170.804688 98.929688 154.042969 98.929688 L 130.09375 98.929688 L 130.09375 100.84375 L 154.042969 100.84375 C 169.464844 100.84375 176.074219 117.320312 176.171875 117.511719 L 181.824219 132.648438 L 181.824219 133.414062 L 176.074219 133.414062 L 176.074219 148.742188 L 162.664062 148.742188 L 162.664062 150.65625 L 166.496094 150.65625 L 166.496094 160.238281 L 168.410156 160.238281 L 168.410156 150.65625 L 177.992188 150.65625 L 177.992188 135.328125 L 183.738281 135.328125 L 183.738281 132.265625 Z M 177.894531 116.746094 "/>
</g>
<g clip-path="url(#clip4)" clip-rule="nonzero">
<path style=" stroke:none;fill-rule:nonzero;fill:rgb(15.686275%,87.843137%,90.588235%);fill-opacity:1;" d="M 126.261719 98.929688 L 128.175781 98.929688 L 128.175781 100.84375 L 126.261719 100.84375 Z M 126.261719 98.929688 "/>
</g>
<g clip-path="url(#clip5)" clip-rule="nonzero">
<path style=" stroke:none;fill-rule:nonzero;fill:rgb(15.686275%,87.843137%,90.588235%);fill-opacity:1;" d="M 161.128906 121.441406 L 167.453125 118.757812 L 167.453125 113.871094 L 159.214844 106.589844 L 141.589844 106.589844 L 141.589844 108.507812 L 147.625 108.507812 L 144.367188 114.445312 L 138.234375 106.589844 L 135.554688 106.589844 L 126.261719 112.242188 L 126.261719 114.925781 L 131.914062 116.554688 L 127.027344 120.578125 L 129.996094 128.625 L 127.21875 134.179688 L 127.21875 136.289062 L 151.167969 136.289062 L 151.167969 134.371094 L 146.089844 134.371094 L 143.410156 128.433594 L 153.371094 132.265625 L 156.339844 138.203125 L 160.554688 138.203125 L 163.71875 125.558594 Z M 161.417969 125.464844 L 154.808594 129.871094 L 154.136719 124.410156 L 159.40625 122.109375 Z M 137.949219 109.371094 L 143.027344 115.882812 L 137.085938 119.621094 L 134.980469 116.074219 Z M 146.28125 114.925781 L 149.539062 109.082031 L 154.808594 113.679688 Z M 155.382812 115.5 L 152.699219 122.300781 L 146.664062 116.9375 Z M 151.074219 123.355469 L 142.929688 125.367188 L 144.941406 117.894531 Z M 141.109375 124.695312 L 138.234375 121.25 L 142.929688 118.277344 Z M 136.800781 122.492188 L 140.34375 126.804688 L 136.511719 132.839844 L 132.199219 128.527344 Z M 152.222656 124.984375 L 152.890625 129.964844 L 144.75 126.804688 Z M 154.808594 122.015625 L 157.585938 115.214844 L 165.539062 115.214844 L 165.539062 117.417969 Z M 163.910156 113.296875 L 157.203125 113.296875 L 151.742188 108.507812 L 158.449219 108.507812 Z M 128.175781 113.394531 L 136.128906 108.507812 L 136.320312 108.507812 L 133.445312 115.023438 L 128.175781 113.488281 Z M 133.636719 117.609375 L 135.648438 120.863281 L 131.339844 126.613281 L 129.328125 121.25 Z M 131.339844 130.253906 L 135.457031 134.371094 L 129.230469 134.371094 Z M 137.949219 134.371094 L 141.492188 128.71875 L 143.984375 134.371094 Z M 159.023438 136.289062 L 157.492188 136.289062 L 155.289062 131.785156 L 161.128906 127.859375 Z M 159.023438 136.289062 "/>
</g>
<path style=" stroke:none;fill-rule:nonzero;fill:rgb(15.686275%,87.843137%,90.588235%);fill-opacity:1;" d="M 149.253906 140.121094 L 151.167969 140.121094 L 151.167969 142.035156 L 149.253906 142.035156 Z M 149.253906 140.121094 "/>
<path style=" stroke:none;fill-rule:nonzero;fill:rgb(15.686275%,87.843137%,90.588235%);fill-opacity:1;" d="M 145.421875 140.121094 L 147.335938 140.121094 L 147.335938 142.035156 L 145.421875 142.035156 Z M 145.421875 140.121094 "/>
<path style=" stroke:none;fill-rule:nonzero;fill:rgb(15.686275%,87.843137%,90.588235%);fill-opacity:1;" d="M 141.589844 140.121094 L 143.503906 140.121094 L 143.503906 142.035156 L 141.589844 142.035156 Z M 141.589844 140.121094 "/>
</g>
</svg>
